<svg width="512" height="512" viewBox="0 0 512 512" fill="none" xmlns="http://www.w3.org/2000/svg">
  <!-- Background Circle -->
  <circle cx="256" cy="256" r="256" fill="url(#gradient1)"/>
  
  <!-- Gradients -->
  <defs>
    <linearGradient id="gradient1" x1="0" y1="0" x2="512" y2="512" gradientUnits="userSpaceOnUse">
      <stop offset="0%" stop-color="#10b981"/>
      <stop offset="50%" stop-color="#14b8a6"/>
      <stop offset="100%" stop-color="#06b6d4"/>
    </linearGradient>
    <linearGradient id="gradient2" x1="0" y1="0" x2="1" y2="1">
      <stop offset="0%" stop-color="#ffffff" stop-opacity="0.9"/>
      <stop offset="100%" stop-color="#f0fdfa" stop-opacity="0.8"/>
    </linearGradient>
  </defs>
  
  <!-- Sparkle Accents -->
  <circle cx="120" cy="120" r="8" fill="#ffffff" opacity="0.6">
    <animate attributeName="opacity" values="0.6;1;0.6" dur="2s" repeatCount="indefinite"/>
  </circle>
  <circle cx="400" cy="150" r="6" fill="#ffffff" opacity="0.5">
    <animate attributeName="opacity" values="0.5;0.9;0.5" dur="2.5s" repeatCount="indefinite"/>
  </circle>
  <circle cx="140" cy="390" r="7" fill="#ffffff" opacity="0.7">
    <animate attributeName="opacity" values="0.7;1;0.7" dur="1.8s" repeatCount="indefinite"/>
  </circle>
  
  <!-- Cleaning Spray Bottle -->
  <g transform="translate(256, 256)">
    <!-- Bottle Body -->
    <path d="M -60 -40 L -50 100 L 50 100 L 60 -40 Z" fill="url(#gradient2)" stroke="#10b981" stroke-width="6"/>
    
    <!-- Bottle Neck -->
    <rect x="-30" y="-80" width="60" height="40" rx="8" fill="url(#gradient2)" stroke="#10b981" stroke-width="5"/>
    
    <!-- Spray Trigger -->
    <path d="M 30 -60 Q 70 -50 80 -20 L 65 -10 Q 58 -35 30 -45 Z" fill="#fbbf24" stroke="#f59e0b" stroke-width="4"/>
    
    <!-- Spray Nozzle -->
    <ellipse cx="75" cy="-25" rx="15" ry="8" fill="#f59e0b"/>
    
    <!-- Spray Droplets -->
    <circle cx="110" cy="-35" r="8" fill="#06b6d4" opacity="0.7">
      <animate attributeName="cx" values="110;140;110" dur="1.5s" repeatCount="indefinite"/>
      <animate attributeName="opacity" values="0.7;0.3;0.7" dur="1.5s" repeatCount="indefinite"/>
    </circle>
    <circle cx="115" cy="-50" r="6" fill="#14b8a6" opacity="0.6">
      <animate attributeName="cx" values="115;145;115" dur="1.7s" repeatCount="indefinite"/>
      <animate attributeName="opacity" values="0.6;0.2;0.6" dur="1.7s" repeatCount="indefinite"/>
    </circle>
    <circle cx="105" cy="-20" r="7" fill="#10b981" opacity="0.8">
      <animate attributeName="cx" values="105;135;105" dur="1.3s" repeatCount="indefinite"/>
      <animate attributeName="opacity" values="0.8;0.3;0.8" dur="1.3s" repeatCount="indefinite"/>
    </circle>
    
    <!-- Shine Effect on Bottle -->
    <ellipse cx="-20" cy="-20" rx="25" ry="40" fill="#ffffff" opacity="0.3"/>
    <ellipse cx="20" cy="30" rx="20" ry="35" fill="#ffffff" opacity="0.2"/>
    
    <!-- Label on Bottle -->
    <ellipse cx="0" cy="20" rx="35" ry="25" fill="#10b981" opacity="0.3"/>
  </g>
  
  <!-- Sparkles around the bottle -->
  <g fill="#ffffff">
    <path d="M 340 200 L 345 205 L 340 210 L 335 205 Z" opacity="0.8">
      <animateTransform attributeName="transform" type="rotate" from="0 340 205" to="360 340 205" dur="4s" repeatCount="indefinite"/>
    </path>
    <path d="M 180 180 L 186 186 L 180 192 L 174 186 Z" opacity="0.7">
      <animateTransform attributeName="transform" type="rotate" from="0 180 186" to="360 180 186" dur="3s" repeatCount="indefinite"/>
    </path>
    <path d="M 350 350 L 356 356 L 350 362 L 344 356 Z" opacity="0.9">
      <animateTransform attributeName="transform" type="rotate" from="0 350 356" to="360 350 356" dur="3.5s" repeatCount="indefinite"/>
    </path>
  </g>
</svg>
